<svg xmlns="http://www.w3.org/2000/svg" viewBox="0 0 431.97 35.49"><defs><style>.cls-1{fill:#383b3f;}.cls-2{fill:#df7b2a;}</style></defs><title>Ativo 2</title><g id="Camada_2" data-name="Camada 2"><g id="Layer_1" data-name="Layer 1"><path class="cls-1" d="M0,17.74A17,17,0,0,1,17.24.3,16.16,16.16,0,0,1,30.62,6.67l-2.5,1.8A13.15,13.15,0,0,0,17.19,3.26C9.27,3.26,3.41,9.47,3.41,17.74s6,14.49,14,14.49A14,14,0,0,0,29,26.56l2.56,1.81a17,17,0,0,1-14.24,6.81A16.94,16.94,0,0,1,0,17.74Z"/><path class="cls-1" d="M37.74.7H41V31.88H56.84v2.9H37.74Z"/><path class="cls-1" d="M62.9.7H83.45V3.61H66.16v17H81.6v2.86H66.16v8.37h18v2.9H62.9Z"/><path class="cls-1" d="M87.81.7h3.61l11,20.1L113.32.7h3.41L104,24.11V34.78h-3.31V24.11Z"/><path class="cls-1" d="M122.39.7h8.52c11.28,0,18,7,18,17s-6.67,17-18,17h-8.52Zm8.22,31.13c10.08,0,14.89-5.82,14.89-14.09S140.69,3.66,130.61,3.66h-5V31.83Z"/><path class="cls-1" d="M154.87,26.87a9.68,9.68,0,0,0,8.92,5.36c4.67,0,7.42-2.31,7.42-5.87,0-3.75-2.3-5.46-6.41-7.36L162,17.69c-4.91-2.3-7.87-4.51-7.87-9.27S157.93.3,162.94.3c4.26,0,7.22,1.6,9.32,5l-2.5,1.61A7.24,7.24,0,0,0,163,3.16c-3.36,0-5.61,2.15-5.61,5.16,0,3.26,1.85,4.46,6,6.42l2.76,1.3c5.46,2.6,8.32,5.11,8.32,10.22,0,5.62-4.26,8.92-10.63,8.92a12.62,12.62,0,0,1-11.73-6.86Z"/><path class="cls-1" d="M178.58,17.74a17.49,17.49,0,0,1,35,0,17.49,17.49,0,0,1-35,0Zm31.57,0c0-8.27-6-14.48-14.08-14.48S182,9.47,182,17.74s6,14.49,14.08,14.49S210.15,26,210.15,17.74Z"/><path class="cls-1" d="M223.08,8V34.78H220V0h.3l22.95,27.52V.7h3.06V35.49H246Z"/><path class="cls-2" d="M258.48,26.89a9.64,9.64,0,0,0,8.9,5.35c4.65,0,7.4-2.3,7.4-5.85,0-3.75-2.3-5.45-6.4-7.35l-2.75-1.3c-4.9-2.3-7.85-4.5-7.85-9.24S261.53.4,266.53.4c4.25,0,7.2,1.6,9.3,5L273.33,7a7.22,7.22,0,0,0-6.75-3.75c-3.35,0-5.6,2.15-5.6,5.15,0,3.24,1.85,4.44,6,6.39l2.75,1.3c5.45,2.6,8.3,5.1,8.3,10.2,0,5.6-4.25,8.89-10.6,8.89a12.58,12.58,0,0,1-11.7-6.84Z"/><path class="cls-2" d="M282.12,17.79a17.45,17.45,0,0,1,34.89,0,17.45,17.45,0,0,1-34.89,0Zm31.49,0c0-8.24-5.95-14.44-14-14.44s-14.05,6.2-14.05,14.44,6,14.45,14.05,14.45S313.61,26,313.61,17.79Z"/><path class="cls-2" d="M323.46.8h11.09c6.4,0,9.55,3.7,9.55,8.35a7,7,0,0,1-4.35,6.79,8.92,8.92,0,0,1,7.05,9c0,5.5-3.6,9.89-10.95,9.89H323.46Zm11.44,14c4.3,0,6-2.35,6-5.64,0-3.1-1.85-5.5-6.5-5.5h-7.64V14.84Zm.65,17.05c5.65,0,7.95-3.05,7.95-7.1s-2.55-7.2-8.05-7.2h-8.74v14.3Z"/><path class="cls-2" d="M373.94,34.78H370l-6.75-8.69a16.78,16.78,0,0,1-2.8.2H356.3v8.49h-3.25V.8h7.39c9.25,0,14.05,5.45,14.05,12.79,0,5.45-2.7,9.9-7.95,11.75Zm-13.7-11.34c7.75,0,10.85-4.15,10.85-9.85S367.94,3.7,360.24,3.7H356.3V23.44Z"/><path class="cls-2" d="M381.44,34.78h-3.25L392.48,0h.25l14.35,34.78h-3.35l-2.35-5.89H383.84ZM392.63,7.15,385,26h15.19C400.23,26,392.63,7.15,392.63,7.15Z"/><path class="cls-2" d="M412.92.8h3.25V31.89H432v2.89H412.92Z"/></g></g></svg>